<svg xmlns="http://www.w3.org/2000/svg" width="24.599" height="24.599" viewBox="0 0 24.599 24.599">
  <g id="Group_258" data-name="Group 258" transform="translate(-913.771 -655.211)">
    <ellipse id="Ellipse_2404" data-name="Ellipse 2404" cx="12.299" cy="12.299" rx="12.299" ry="12.299" transform="translate(913.771 655.211)" fill="#3679bc"/>
    <g id="backpack" transform="translate(920.12 661.715)">
      <g id="Group_13" data-name="Group 13" transform="translate(3.168 6.843)">
        <g id="Group_12" data-name="Group 12">
          <path id="Path_17" data-name="Path 17" d="M140.911,297.151H136a.357.357,0,0,0-.357.357v.945a2.172,2.172,0,0,0,2.169,2.169H139.1a2.172,2.172,0,0,0,2.169-2.169v-.945A.357.357,0,0,0,140.911,297.151Zm-1.812,2.758h-1.283a1.456,1.456,0,0,1-1.455-1.455v-.588h4.192v.588h0A1.456,1.456,0,0,1,139.1,299.909Z" transform="translate(-135.647 -297.151)" fill="#fff"/>
        </g>
      </g>
      <g id="Group_15" data-name="Group 15" transform="translate(3.168 5.418)">
        <g id="Group_14" data-name="Group 14">
          <path id="Path_18" data-name="Path 18" d="M140.911,236.135H136a.357.357,0,0,0,0,.715h4.907a.357.357,0,0,0,0-.715Z" transform="translate(-135.647 -236.135)" fill="#fff"/>
        </g>
      </g>
      <g id="Group_17" data-name="Group 17" transform="translate(0 0)">
        <g id="Group_16" data-name="Group 16">
          <path id="Path_19" data-name="Path 19" d="M10.332,9.569V9.111a4.332,4.332,0,0,0-.282-1.54V5a.864.864,0,0,0-.863-.863h-.8A.864.864,0,0,0,7.528,5v.044a4.352,4.352,0,0,0-3.1,0V5a.864.864,0,0,0-.863-.863h-.8A.864.864,0,0,0,1.906,5V7.57a4.332,4.332,0,0,0-.282,1.541v.459A1.905,1.905,0,0,0,0,11.451v1.76a1.073,1.073,0,0,0,1.072,1.072h.553v.155a1.462,1.462,0,0,0,1.46,1.46H8.872a1.462,1.462,0,0,0,1.46-1.46v-.155h.553a1.073,1.073,0,0,0,1.072-1.072v-1.76A1.905,1.905,0,0,0,10.332,9.569Zm-8.708,4H1.072a.358.358,0,0,1-.357-.357v-1.76a1.19,1.19,0,0,1,.91-1.155ZM8.242,5A.148.148,0,0,1,8.39,4.85h.8A.148.148,0,0,1,9.336,5V6.342a4.387,4.387,0,0,0-1.094-.949V5ZM2.621,5a.148.148,0,0,1,.148-.148h.8A.148.148,0,0,1,3.715,5v.4a4.388,4.388,0,0,0-1.094.949V5Zm7,9.441h0a.747.747,0,0,1-.746.746H3.085a.747.747,0,0,1-.746-.746V9.111a3.639,3.639,0,0,1,7-1.4h0a3.619,3.619,0,0,1,.281,1.4Zm1.625-1.227a.358.358,0,0,1-.357.357h-.553V10.3a1.19,1.19,0,0,1,.91,1.155Z" transform="translate(0 -4.135)" fill="#fff"/>
        </g>
      </g>
    </g>
  </g>
</svg>
